<?xml version="1.0" encoding="utf-8"?>
<!-- Generator: Adobe Illustrator 27.0.1, SVG Export Plug-In . SVG Version: 6.00 Build 0)  -->
<svg version="1.1" baseProfile="tiny" id="Layer_1" xmlns="http://www.w3.org/2000/svg" xmlns:xlink="http://www.w3.org/1999/xlink"
	 x="0px" y="0px" viewBox="0 0 792 612" overflow="visible" xml:space="preserve">
<g>
	<path d="M26.5,165.04h51.19v1.78H28.43v52.08h47.33v1.78H28.43v54.45H26.5V165.04z"/>
	<path d="M104.09,165.04h1.93v110.09h-1.93V165.04z"/>
	<path d="M132.28,273.2v0.15h66.02v1.78h-69.58l69.73-108.16v-0.15h-64.69v-1.78h68.1L132.28,273.2z"/>
	<path d="M214.02,273.2v0.15h66.02v1.78h-69.58l69.73-108.16v-0.15H215.5v-1.78h68.1L214.02,273.2z"/>
</g>
<g>
	<path d="M393.78,304.92h33.53c23.59,0,35.91,12.32,35.91,28.64c0,13.2-7.27,21.07-16.77,24.78c13.5,4.15,20.33,13.8,20.33,26.56
		c0,16.62-12.46,30.42-37.68,30.42h-35.31V304.92z M427.32,353.29c14.39,0,22.25-7.87,22.25-18.4c0-10.98-8.01-17.51-21.22-17.51
		h-20.92v35.91H427.32z M428.8,402.84c15.73,0,24.18-8.01,24.18-19.14c0-12.17-9.94-18.99-23.44-18.99h-22.11v38.13H428.8z"/>
	<path d="M488.73,373.61v-68.7h13.8v69.44c0,18.55,10.53,30.12,27.6,30.12c17.36,0,28.78-11.57,28.78-30.42v-69.14h13.8v68.55
		c0,26.11-16.62,44.06-42.58,44.06C504.46,417.53,488.73,399.58,488.73,373.61z"/>
	<path d="M612.16,402.4h54.75v12.91h-77.15l58.46-97.48h-53.86v-12.91h76.26L612.16,402.4z"/>
	<path d="M699.84,402.4h54.75v12.91h-77.15l58.46-97.48h-53.86v-12.91h76.26L699.84,402.4z"/>
</g>
<g>
	<path fill="#ED1C24" d="M320.72,306.58c13.01,1.63,12.97-5.02,13.01-9.94L333.5,161.9l47.09-24.48c4.4-2.25,10.26-4.66,7.97-9.04
		c-2.27-4.36-9.45-7.06-13.8-4.79l-59.07,31.44l-0.16,140.26C315.44,300.23,314.7,306.54,320.72,306.58z"/>
	<path fill="#ED1C24" d="M344.85,226.08c-0.08,4.94-0.82,11.25,5.2,11.29c13.01,1.63,12.97-5.02,13.01-9.94l-0.23-49.4l31.57-16.12
		l-0.08,15.07c-0.08,4.94-0.82,11.25,5.2,11.29c13.01,1.63,12.97-5.02,13.01-9.94l-0.47-26.92c0.53-1.01,0.65-2.14-0.04-3.47
		c-2.27-4.36-9.45-7.06-13.81-4.79l-53.19,28.01L344.85,226.08z"/>
	<path fill="#ED1C24" d="M391.19,221.79l-0.26-18.83c-0.02-4.94,0.55-15.85-5.46-15.77c-13.04-1.38-12.82,9.86-12.77,14.77
		l-0.01,28.97L391.19,221.79z"/>
	<path fill="#ED1C24" d="M418.63,230.93l-0.15,0.07c-0.08-0.37-0.15-0.74-0.36-1.15c-2.27-4.36-9.45-7.06-13.81-4.79l-59.07,31.44
		l-0.16,96.1c0,0.17-0.01,0.35-0.01,0.53l-26.32,12.73c-4.4,2.25-10.26,4.66-7.97,9.04c2.27,4.36,9.45,7.06,13.81,4.79l35.32-16.85
		c0.07-0.04,0.16-0.07,0.22-0.11l0.03-0.01l-0.01-0.01c3.11-1.99,3.11-5.71,3.14-8.76l-0.22-90.59l37.14-19.31l0.2,14.82
		c0.02,4.94-0.6,11.26,5.41,11.19c13.04,1.38,12.87-5.27,12.81-10.18L418.63,230.93z"/>
</g>
<g>
	<path d="M466.31,283.44l-4.88-11.99h-14.98l-4.88,11.99h-0.59l12.71-31.22h0.51l12.71,31.22H466.31z M461.22,270.94l-7.28-17.97
		l-7.28,17.97H461.22z"/>
	<path d="M496.95,283.73c-7.32,0-15.06-5.64-15.06-15.95c0-10.22,7.66-15.86,14.73-15.86c3.28,0,6.02,0.76,8.29,2.15v0.59
		c-2.23-1.47-5.01-2.23-8.29-2.23c-6.78,0-14.18,5.39-14.18,15.36c0,10.06,7.49,15.44,14.52,15.44c2.94,0,5.64-0.72,7.95-2.23v0.59
		C502.59,283.02,499.85,283.73,496.95,283.73z"/>
	<path d="M508.99,272.41c0-7.03,5.01-11.32,10.27-11.32s10.27,4.29,10.27,11.32c0,7.03-5.05,11.32-10.27,11.32
		C514.04,283.73,508.99,279.44,508.99,272.41z M519.26,283.23c4.97,0,9.72-4.04,9.72-10.81c0-6.77-4.75-10.81-9.72-10.81
		c-4.96,0-9.72,4.04-9.72,10.81C509.54,279.19,514.3,283.23,519.26,283.23z"/>
	<path d="M534.67,272.41c0-7.03,4.8-11.32,9.97-11.32c4.08,0,8.04,2.57,9.38,7.49h0.04v-18.43h0.55v33.28h-0.46l-0.04-7.32h-0.04
		c-1.35,5.05-5.3,7.62-9.38,7.62C539.51,283.73,534.67,279.44,534.67,272.41z M544.68,283.23c4.88,0,9.43-4,9.43-10.81
		c0-6.82-4.5-10.81-9.47-10.81c-4.88,0-9.43,4.04-9.43,10.81C535.21,279.19,539.8,283.23,544.68,283.23z"/>
	<path d="M563.5,252.13c0.42,0,0.76,0.34,0.76,0.76s-0.34,0.76-0.76,0.76c-0.42,0-0.76-0.34-0.76-0.76S563.08,252.13,563.5,252.13z
		 M563.2,261.39h0.55v22.05h-0.55V261.39z"/>
	<path d="M588.07,268.58v14.85h-0.55v-14.85c0-4.42-2.73-6.99-6.94-6.99c-4.08,0-7.7,2.36-7.7,6.86v14.98h-0.55v-22.05h0.46
		l0.04,4.5h0.04c1.14-3.11,4.12-4.8,7.7-4.8C585.09,261.09,588.07,263.91,588.07,268.58z"/>
	<path d="M613.62,268.54h0.04l0.04-7.15h0.46v22.3c0,7.07-4.38,9.3-9.22,9.3c-2.73,0-5.76-0.46-8.46-2.44v-0.63
		c2.65,2.02,5.76,2.57,8.46,2.57c4.55,0,8.67-1.98,8.67-8.79v-7.83h-0.04c-1.3,4.8-5.18,7.32-9.17,7.32
		c-5.09,0-9.85-4.21-9.85-11.02c0-6.86,4.71-11.07,9.8-11.07C608.36,261.09,612.32,263.62,613.62,268.54z M604.41,282.68
		c4.8,0,9.26-3.91,9.26-10.52c0-6.65-4.42-10.56-9.3-10.56c-4.8,0-9.26,3.96-9.26,10.56C595.11,278.72,599.61,282.68,604.41,282.68z
		"/>
	<path d="M636.23,252.21h5.93c6.44,0,10.77,3.32,10.77,9.09c0,5.97-4.29,9.38-10.82,9.38h-5.34v12.75h-0.55V252.21z M642.12,270.18
		c6.23,0,10.27-3.16,10.27-8.88c0-5.51-4.08-8.58-10.22-8.58h-5.39v17.46H642.12z"/>
	<path d="M659.13,261.39h0.46l0.04,4.84h0.04c1.05-3.24,3.91-5.01,6.61-5.01c0.38,0,0.97,0.04,1.3,0.08v0.5
		c-0.29-0.04-0.84-0.08-1.3-0.08c-3.11,0-6.44,2.48-6.61,6.82v14.9h-0.55V261.39z"/>
	<path d="M669.31,272.41c0-7.03,5.01-11.32,10.27-11.32c5.26,0,10.27,4.29,10.27,11.32c0,7.03-5.05,11.32-10.27,11.32
		C674.36,283.73,669.31,279.44,669.31,272.41z M679.58,283.23c4.97,0,9.72-4.04,9.72-10.81c0-6.77-4.75-10.81-9.72-10.81
		c-4.96,0-9.72,4.04-9.72,10.81C669.86,279.19,674.62,283.23,679.58,283.23z"/>
	<path d="M696.8,281.42v-20.03h0.55v20.03c0,5.3-1.35,8.63-3.49,11.28h-0.72C695.53,290,696.8,286.47,696.8,281.42z M697.09,252.13
		c0.42,0,0.76,0.34,0.76,0.76s-0.34,0.76-0.76,0.76c-0.42,0-0.76-0.34-0.76-0.76S696.67,252.13,697.09,252.13z"/>
	<path d="M704.29,272.41c0-7.03,4.8-11.32,9.93-11.32c4.67,0,8.92,3.62,8.92,10.81c0,0.25-0.04,0.55-0.04,0.55h-18.26
		c0,6.82,4.21,10.77,9.76,10.77c2.86,0,5.81-0.97,8.2-3.2v0.63c-2.4,2.06-5.39,3.07-8.2,3.07
		C708.75,283.73,704.29,279.52,704.29,272.41z M722.59,271.95c0-6.94-4-10.35-8.37-10.35c-4.71,0-9.17,3.87-9.38,10.35H722.59z"/>
	<path d="M738.59,283.23c1.64,0,3.91-0.38,5.89-1.77v0.63c-1.98,1.26-4.21,1.64-5.89,1.64c-5.55,0-10.39-4.54-10.39-11.32
		c0-6.65,4.71-11.32,10.31-11.32c1.64,0,3.87,0.34,5.98,1.56v0.59c-2.1-1.3-4.38-1.64-5.98-1.64c-5.3,0-9.76,4.42-9.76,10.81
		C728.74,278.93,733.29,283.23,738.59,283.23z"/>
	<path d="M751.77,261.39h6.73v0.5h-6.73v15.27c0,4.54,2.4,6.02,5.72,6.02c0.63,0,1.14-0.04,1.73-0.17v0.5
		c-0.34,0.08-1.05,0.17-1.77,0.17c-3.58,0-6.23-1.73-6.23-6.44v-15.36h-3.41v-0.5h3.41v-5.26h0.55V261.39z"/>
</g>
</svg>
